#N canvas 43 63 570 546 10;
#X obj 70 47 cnv 15 400 100 empty empty empty 12 12 0 14 -261682 -66577
0;
#X obj 71 160 cnv 15 400 100 empty empty empty 20 12 0 14 -204786 -66577
0;
#X obj 71 272 cnv 15 400 100 empty empty empty 20 12 0 14 -204800 -66577
0;
#X obj 69 387 cnv 15 400 100 empty empty empty 20 12 0 14 -228856 -66577
0;
#N canvas 761 34 450 300 input_stage 1;
#X obj 72 51 key;
#X obj 72 89 trigger float float bang;
#X obj 72 144 outlet float;
#X obj 159 144 outlet float;
#X obj 245 143 outlet bang;
#X connect 0 0 1 0;
#X connect 1 0 2 0;
#X connect 1 1 3 0;
#X connect 1 2 4 0;
#X restore 97 86 pd input_stage;
#N canvas 665 164 450 300 oscillator_stage 1;
#X obj 46 42 inlet float;
#X obj 46 100 phasor~;
#X obj 46 157 *~ 0.5;
#X obj 139 82 * 0.99;
#X obj 139 114 phasor~;
#X obj 45 203 outlet~ audio;
#X connect 0 0 1 0;
#X connect 0 0 3 0;
#X connect 1 0 2 0;
#X connect 2 0 5 0;
#X connect 3 0 4 0;
#X connect 4 0 2 0;
#X restore 97 205 pd oscillator_stage;
#N canvas 574 136 450 323 filter_stage 1;
#X obj 53 35 inlet~ audio;
#X obj 157 35 inlet float;
#X obj 157 72 mtof;
#X obj 157 100 * 1.5;
#X obj 157 132 pack 0 300;
#X obj 157 161 line~;
#X obj 52 212 vcf~ 220 3;
#X floatatom 147 196 5 0 0 0 - - -;
#X obj 53 254 outlet~ audio;
#X connect 0 0 6 0;
#X connect 1 0 2 0;
#X connect 2 0 3 0;
#X connect 3 0 4 0;
#X connect 4 0 5 0;
#X connect 5 0 6 1;
#X connect 6 0 8 0;
#X connect 7 0 6 2;
#X restore 98 302 pd filter_stage;
#N canvas 340 183 450 300 amp_stage 1;
#X obj 47 42 inlet~ audio;
#X obj 157 42 inlet bang;
#X msg 157 84 1 150 \, 0.9 150 150 \, 0 1000 500;
#X obj 87 135 vline~;
#X obj 48 180 *~;
#X obj 47 222 dac~;
#X connect 0 0 4 0;
#X connect 1 0 2 0;
#X connect 2 0 3 0;
#X connect 3 0 4 1;
#X connect 4 0 5 0;
#X connect 4 0 5 1;
#X restore 99 418 pd amp_stage;
#X connect 4 0 5 0;
#X connect 4 1 6 1;
#X connect 4 2 7 1;
#X connect 5 0 6 0;
#X connect 6 0 7 0;
