#N canvas 701 17 519 652 10;
#X obj 60 37 cnv 15 400 100 empty empty empty 12 12 0 14 -261682 -66577
0;
#X obj 61 150 cnv 15 400 150 empty empty empty 20 12 0 14 -204786 -66577
0;
#X obj 62 310 cnv 15 400 150 empty empty empty 20 12 0 14 -204800 -66577
0;
#X obj 64 471 cnv 15 400 150 empty empty empty 20 12 0 14 -228856 -66577
0;
#X obj 83 58 key;
#X obj 83 88 trigger float float bang;
#X obj 83 163 mtof;
#X obj 83 213 phasor~;
#X obj 83 257 *~ 0.5;
#X obj 169 193 * 0.99;
#X obj 153 322 mtof;
#X obj 169 222 phasor~;
#X obj 153 350 * 1.5;
#X obj 153 376 pack 0 300;
#X obj 153 403 line~;
#X obj 84 429 vcf~ 220 3;
#X floatatom 170 429 5 0 0 0 - - -;
#X msg 224 488 1 150 \, 0.9 150 150 \, 0 1000 500;
#X obj 101 523 vline~;
#X obj 85 548 *~;
#X obj 84 592 dac~;
#X connect 4 0 5 0;
#X connect 5 0 6 0;
#X connect 5 1 10 0;
#X connect 5 2 17 0;
#X connect 6 0 7 0;
#X connect 6 0 9 0;
#X connect 7 0 8 0;
#X connect 8 0 15 0;
#X connect 9 0 11 0;
#X connect 10 0 12 0;
#X connect 11 0 8 0;
#X connect 12 0 13 0;
#X connect 13 0 14 0;
#X connect 14 0 15 1;
#X connect 15 0 19 0;
#X connect 16 0 15 2;
#X connect 17 0 18 0;
#X connect 18 0 19 1;
#X connect 19 0 20 0;
#X connect 19 0 20 1;
