#N canvas 23 36 1097 453 10;
#X obj 26 222 key;
#X obj 26 255 sel 113;
#X obj 26 281 bng 15 250 50 0 empty empty empty 17 7 0 10 -262144 -1
-1;
#X obj 26 393 noteout;
#X msg 57 362 127;
#X obj 560 211 key;
#X obj 560 270 bng 15 250 50 0 empty empty empty 17 7 0 10 -262144
-1 -1;
#X obj 560 380 noteout;
#X msg 594 353 127;
#X msg 560 353 67;
#X obj 82 255 sel 113;
#X obj 82 281 bng 15 250 50 0 empty empty empty 17 7 0 10 -262144 -1
-1;
#X obj 82 335 noteout;
#X obj 82 222 keyup;
#X msg 116 305 0;
#X obj 616 270 bng 15 250 50 0 empty empty empty 17 7 0 10 -262144
-1 -1;
#X obj 616 326 noteout;
#X msg 616 297 67;
#X obj 616 211 keyup;
#X msg 648 297 0;
#X obj 26 307 counter;
#X obj 26 334 sel 1;
#X obj 560 297 counter;
#X obj 560 327 sel 1;
#X text 184 26 Tecla Presionada:;
#X obj 301 13 key;
#X floatatom 300 50 5 0 0 0 - - -;
#X obj 161 218 key;
#X obj 161 277 bng 15 250 50 0 empty empty empty 17 7 0 10 -262144
-1 -1;
#X obj 161 389 noteout;
#X msg 192 358 127;
#X obj 217 277 bng 15 250 50 0 empty empty empty 17 7 0 10 -262144
-1 -1;
#X obj 217 331 noteout;
#X obj 217 218 keyup;
#X msg 251 301 0;
#X obj 161 303 counter;
#X obj 161 330 sel 1;
#X msg 82 306 60;
#X msg 26 363 60;
#X obj 687 211 key;
#X obj 687 270 bng 15 250 50 0 empty empty empty 17 7 0 10 -262144
-1 -1;
#X obj 687 380 noteout;
#X msg 721 353 127;
#X obj 743 270 bng 15 250 50 0 empty empty empty 17 7 0 10 -262144
-1 -1;
#X obj 743 326 noteout;
#X obj 743 211 keyup;
#X msg 775 297 0;
#X obj 687 297 counter;
#X obj 687 327 sel 1;
#X msg 743 297 69;
#X msg 687 353 69;
#X obj 294 218 key;
#X obj 294 277 bng 15 250 50 0 empty empty empty 17 7 0 10 -262144
-1 -1;
#X obj 294 389 noteout;
#X msg 325 358 127;
#X obj 350 277 bng 15 250 50 0 empty empty empty 17 7 0 10 -262144
-1 -1;
#X obj 350 331 noteout;
#X obj 350 218 keyup;
#X msg 384 301 0;
#X obj 294 303 counter;
#X obj 294 330 sel 1;
#X obj 429 214 key;
#X obj 429 273 bng 15 250 50 0 empty empty empty 17 7 0 10 -262144
-1 -1;
#X obj 429 385 noteout;
#X msg 460 354 127;
#X obj 485 273 bng 15 250 50 0 empty empty empty 17 7 0 10 -262144
-1 -1;
#X obj 485 327 noteout;
#X obj 485 214 keyup;
#X msg 519 297 0;
#X obj 429 299 counter;
#X obj 429 326 sel 1;
#X obj 161 251 sel 119;
#X obj 217 251 sel 119;
#X obj 294 251 sel 101;
#X obj 350 251 sel 101;
#X obj 429 247 sel 114;
#X obj 485 247 sel 114;
#X obj 560 243 sel 116;
#X obj 616 243 sel 116;
#X obj 687 243 sel 121;
#X obj 743 243 sel 121;
#X text 49 187 Q -> C5;
#X text 317 183 E -> E5;
#X text 184 183 W -> D5;
#X text 452 179 R -> F5;
#X text 583 177 T -> G5;
#X text 707 176 Y -> A5;
#X obj 817 208 key;
#X obj 817 267 bng 15 250 50 0 empty empty empty 17 7 0 10 -262144
-1 -1;
#X obj 817 377 noteout;
#X msg 851 350 127;
#X obj 873 267 bng 15 250 50 0 empty empty empty 17 7 0 10 -262144
-1 -1;
#X obj 873 323 noteout;
#X obj 873 208 keyup;
#X obj 817 294 counter;
#X obj 817 324 sel 1;
#X obj 817 240 sel 117;
#X obj 873 240 sel 117;
#X msg 217 302 62;
#X msg 161 359 62;
#X msg 350 302 64;
#X msg 294 359 64;
#X msg 485 298 65;
#X msg 429 355 65;
#X msg 873 294 71;
#X msg 817 350 71;
#X text 840 174 T -> B5;
#X obj 953 206 key;
#X obj 953 265 bng 15 250 50 0 empty empty empty 17 7 0 10 -262144
-1 -1;
#X obj 953 377 noteout;
#X msg 984 346 127;
#X obj 1009 265 bng 15 250 50 0 empty empty empty 17 7 0 10 -262144
-1 -1;
#X obj 1009 319 noteout;
#X obj 1009 206 keyup;
#X obj 953 291 counter;
#X obj 953 318 sel 1;
#X obj 1009 238 sel 105;
#X msg 953 347 72;
#X msg 1009 290 72;
#X text 976 171 U -> C6;
#X obj 953 239 sel 105;
#X text 477 14 Presiona para generar sonido: Q - 113 - C5 - 60 W -
- D5 - 62 W - 119 - E5 - 64 E - G5 - 67;
#X connect 0 0 1 0;
#X connect 1 0 2 0;
#X connect 2 0 20 0;
#X connect 4 0 3 1;
#X connect 5 0 77 0;
#X connect 6 0 22 0;
#X connect 8 0 7 1;
#X connect 9 0 7 0;
#X connect 10 0 11 0;
#X connect 11 0 37 0;
#X connect 11 0 14 0;
#X connect 11 0 20 3;
#X connect 13 0 10 0;
#X connect 14 0 12 1;
#X connect 15 0 17 0;
#X connect 15 0 19 0;
#X connect 15 0 22 3;
#X connect 17 0 16 0;
#X connect 18 0 78 0;
#X connect 19 0 16 1;
#X connect 20 0 21 0;
#X connect 21 0 38 0;
#X connect 22 0 23 0;
#X connect 23 0 9 0;
#X connect 25 0 26 0;
#X connect 27 0 71 0;
#X connect 28 0 35 0;
#X connect 30 0 29 1;
#X connect 31 0 98 0;
#X connect 31 0 34 0;
#X connect 31 0 35 3;
#X connect 33 0 72 0;
#X connect 34 0 32 1;
#X connect 35 0 36 0;
#X connect 36 0 99 0;
#X connect 37 0 12 0;
#X connect 38 0 3 0;
#X connect 39 0 79 0;
#X connect 40 0 47 0;
#X connect 42 0 41 1;
#X connect 43 0 49 0;
#X connect 43 0 46 0;
#X connect 43 0 47 3;
#X connect 45 0 80 0;
#X connect 46 0 44 1;
#X connect 47 0 48 0;
#X connect 48 0 50 0;
#X connect 49 0 44 0;
#X connect 50 0 41 0;
#X connect 51 0 73 0;
#X connect 52 0 59 0;
#X connect 54 0 53 1;
#X connect 55 0 100 0;
#X connect 55 0 58 0;
#X connect 55 0 59 3;
#X connect 57 0 74 0;
#X connect 58 0 56 1;
#X connect 59 0 60 0;
#X connect 60 0 101 0;
#X connect 61 0 75 0;
#X connect 62 0 69 0;
#X connect 64 0 63 1;
#X connect 65 0 102 0;
#X connect 65 0 68 0;
#X connect 65 0 69 3;
#X connect 67 0 76 0;
#X connect 68 0 66 1;
#X connect 69 0 70 0;
#X connect 70 0 103 0;
#X connect 71 0 28 0;
#X connect 72 0 31 0;
#X connect 73 0 52 0;
#X connect 74 0 55 0;
#X connect 75 0 62 0;
#X connect 76 0 65 0;
#X connect 77 0 6 0;
#X connect 78 0 15 0;
#X connect 79 0 40 0;
#X connect 80 0 43 0;
#X connect 87 0 96 0;
#X connect 88 0 94 0;
#X connect 90 0 89 1;
#X connect 91 0 104 0;
#X connect 91 0 94 3;
#X connect 93 0 97 0;
#X connect 94 0 95 0;
#X connect 95 0 105 0;
#X connect 96 0 88 0;
#X connect 97 0 91 0;
#X connect 98 0 32 0;
#X connect 99 0 29 0;
#X connect 100 0 56 0;
#X connect 101 0 53 0;
#X connect 102 0 66 0;
#X connect 103 0 63 0;
#X connect 104 0 92 0;
#X connect 105 0 89 0;
#X connect 107 0 120 0;
#X connect 108 0 114 0;
#X connect 110 0 109 1;
#X connect 111 0 118 0;
#X connect 111 0 114 3;
#X connect 113 0 116 0;
#X connect 114 0 115 0;
#X connect 115 0 117 0;
#X connect 116 0 111 0;
#X connect 117 0 109 0;
#X connect 118 0 112 0;
#X connect 120 0 108 0;
