#N canvas 267 89 800 581 10;
#X floatatom 320 333 5 0 0 0 - - -;
#X obj 320 365 osc~;
#X obj 320 402 *~;
#X obj 320 535 dac~;
#X msg 261 260 440;
#X msg 296 260 524;
#X msg 330 259 660;
#X msg 365 259 880;
#X obj 284 227 route 0 1 2;
#X obj 284 197 random 4;
#X obj 284 170 metro;
#X obj 358 113 random 4;
#X obj 358 137 * 200;
#X obj 284 109 tgl 15 0 empty empty empty 17 7 0 10 -262144 -1 -1 1
1;
#X obj 364 356 / 2;
#X obj 364 379 *;
#X obj 363 403 osc~;
#X text 276 82 Bajo;
#X floatatom 139 342 5 0 0 0 - - -;
#X obj 139 374 osc~;
#X obj 139 408 *~;
#X msg 80 269 440;
#X msg 115 269 524;
#X msg 149 268 660;
#X msg 184 268 880;
#X obj 103 236 route 0 1 2;
#X obj 103 206 random 4;
#X obj 103 179 metro;
#X obj 157 123 random 4;
#X obj 157 147 * 200;
#X obj 183 365 / 2;
#X obj 183 388 *;
#X obj 182 412 osc~;
#X obj 139 313 line;
#X obj 91 109 tgl 15 0 empty empty empty 17 7 0 10 -262144 -1 -1 0
1;
#X obj 174 176 t f f;
#X text 82 83 Slide;
#X floatatom 521 341 5 0 0 0 - - -;
#X obj 521 373 osc~;
#X obj 521 407 *~;
#X msg 462 268 440;
#X msg 497 268 524;
#X msg 531 267 660;
#X msg 566 267 880;
#X obj 485 235 route 0 1 2;
#X obj 485 205 random 4;
#X obj 485 178 metro;
#X obj 539 122 random 4;
#X obj 539 146 * 200;
#X obj 565 364 / 2;
#X obj 565 387 *;
#X obj 564 411 osc~;
#X obj 521 312 line;
#X obj 473 108 tgl 15 0 empty empty empty 17 7 0 10 -262144 -1 -1 1
1;
#X obj 556 175 t f f;
#X text 464 82 Slide 2;
#X obj 320 297 / 4;
#X obj 641 204 metro;
#X obj 641 256 f;
#X obj 640 281 + 1;
#X floatatom 642 315 5 0 0 0 - - -;
#X obj 642 353 line;
#X obj 693 234 random 3000;
#X obj 643 382 + 0.2;
#X obj 714 321 t f f;
#X obj 714 343 sel 1;
#X msg 715 366 -1;
#X floatatom 643 406 5 0 0 0 - - -;
#X obj 519 473 *~;
#X obj 490 435 clip~ -0.5 0.5;
#X connect 0 0 1 0;
#X connect 0 0 14 0;
#X connect 1 0 2 0;
#X connect 2 0 3 0;
#X connect 2 0 3 1;
#X connect 4 0 56 0;
#X connect 5 0 56 0;
#X connect 6 0 56 0;
#X connect 7 0 56 0;
#X connect 8 0 4 0;
#X connect 8 1 5 0;
#X connect 8 2 6 0;
#X connect 8 3 7 0;
#X connect 9 0 8 0;
#X connect 10 0 9 0;
#X connect 10 0 11 0;
#X connect 11 0 12 0;
#X connect 11 0 15 1;
#X connect 12 0 10 1;
#X connect 13 0 10 0;
#X connect 13 0 2 1;
#X connect 14 0 15 0;
#X connect 15 0 16 0;
#X connect 16 0 2 0;
#X connect 18 0 19 0;
#X connect 18 0 30 0;
#X connect 19 0 20 0;
#X connect 20 0 3 0;
#X connect 20 0 3 1;
#X connect 21 0 33 0;
#X connect 22 0 33 0;
#X connect 23 0 33 0;
#X connect 24 0 33 0;
#X connect 25 0 21 0;
#X connect 25 1 22 0;
#X connect 25 2 23 0;
#X connect 25 3 24 0;
#X connect 26 0 25 0;
#X connect 27 0 26 0;
#X connect 27 0 28 0;
#X connect 28 0 29 0;
#X connect 28 0 31 1;
#X connect 29 0 35 0;
#X connect 30 0 31 0;
#X connect 31 0 32 0;
#X connect 32 0 20 0;
#X connect 33 0 18 0;
#X connect 34 0 27 0;
#X connect 34 0 33 2;
#X connect 34 0 20 1;
#X connect 35 0 27 1;
#X connect 35 1 33 1;
#X connect 37 0 38 0;
#X connect 37 0 49 0;
#X connect 38 0 39 0;
#X connect 39 0 69 0;
#X connect 40 0 52 0;
#X connect 41 0 52 0;
#X connect 42 0 52 0;
#X connect 43 0 52 0;
#X connect 44 0 40 0;
#X connect 44 1 41 0;
#X connect 44 2 42 0;
#X connect 44 3 43 0;
#X connect 45 0 44 0;
#X connect 46 0 45 0;
#X connect 46 0 47 0;
#X connect 47 0 48 0;
#X connect 47 0 50 1;
#X connect 48 0 54 0;
#X connect 49 0 50 0;
#X connect 50 0 51 0;
#X connect 51 0 39 0;
#X connect 52 0 37 0;
#X connect 53 0 46 0;
#X connect 53 0 52 2;
#X connect 53 0 39 1;
#X connect 53 0 57 0;
#X connect 53 0 61 2;
#X connect 54 0 46 1;
#X connect 54 1 52 1;
#X connect 56 0 0 0;
#X connect 57 0 62 0;
#X connect 57 0 58 0;
#X connect 58 0 59 0;
#X connect 59 0 60 0;
#X connect 59 0 64 0;
#X connect 60 0 61 0;
#X connect 61 0 63 0;
#X connect 62 0 57 1;
#X connect 62 0 61 1;
#X connect 63 0 67 0;
#X connect 64 0 65 0;
#X connect 64 1 58 1;
#X connect 65 0 66 0;
#X connect 66 0 58 1;
#X connect 67 0 68 1;
#X connect 68 0 3 0;
#X connect 68 0 3 1;
#X connect 69 0 68 0;
